<?xml version="1.0" standalone="no"?><!DOCTYPE svg PUBLIC "-//W3C//DTD SVG 1.1//EN" "http://www.w3.org/Graphics/SVG/1.1/DTD/svg11.dtd"><svg t="1594284204317" class="icon" viewBox="0 0 1024 1024" version="1.1" xmlns="http://www.w3.org/2000/svg" p-id="4585" xmlns:xlink="http://www.w3.org/1999/xlink" width="200" height="200"><defs><style type="text/css"></style></defs><path d="M202 112.6l-100.5-10.7 10.6 100.6z" fill="#FFD976" p-id="4586"></path><path d="M956 811.4c-4.4-8.8-15.1-12.4-23.9-8-1.9 1-45.4 23.7-68.3 35.6l-34.2-34.2c27.2-14.2 56-29.2 57.9-30.2 8.8-4.4 12.3-15.1 7.9-23.9-4.4-8.8-15.1-12.4-23.9-8-1.9 1-45.4 23.7-68.3 35.6l-80.9-80.9c40.7-36.5 73.9-74.5 99.1-113.9 63.3-98.8 61.4-181 48.6-232.6-11.7-47.3-38.4-89.9-75-119.9-36.2-29.6-80.4-45.9-124.7-45.9-61.6 0-117.4 30.3-159.5 85.8-42.1-55.6-97.9-85.8-159.5-85.8-37.6 0-75.2 11.8-107.8 33.5L194.9 170l58.7-58.7c4.9-4.9 6.5-12.1 4.2-18.6-2.3-6.5-8.1-11.1-14.9-11.8L83.3 64.1a17.7 17.7 0 0 0-14.5 5.1 17.7 17.7 0 0 0-5.1 14.5l16.9 159.6c0.7 6.8 5.3 12.6 11.8 14.9 1.9 0.7 4 1 5.9 1 4.6 0 9.2-1.8 12.6-5.2l58.7-58.7 45.7 45.7c-30.8 29.1-53.3 67.7-63.8 110-12.8 51.6-14.8 133.8 48.6 232.6 58.9 91.9 160.6 176.5 302.3 251.5 2.6 1.4 5.5 2.1 8.3 2.1 2.9 0 5.7-0.7 8.3-2.1 68-36 126.7-74.2 176-114.4l82.9 82.9c-12 22.9-34.7 66.4-35.6 68.3-4.4 8.8-0.9 19.5 7.9 23.9 2.6 1.3 5.3 1.9 8 1.9 6.5 0 12.8-3.6 15.9-9.8 0.9-1.8 16-30.7 30.2-57.9l34.2 34.2c-12 22.9-34.7 66.4-35.6 68.3-4.4 8.8-0.9 19.5 7.9 23.9 2.6 1.3 5.3 1.9 8 1.9 6.5 0 12.8-3.6 15.9-9.8 1.1-2.1 22.9-43.9 38.8-74.4 30.4-15.9 72.2-37.7 74.4-38.8 9-4.4 12.5-15.1 8.1-23.9z" fill="#E66978" p-id="4587"></path><path d="M541.3 516.5c-7-7-18.2-7-25.2 0s-7 18.2 0 25.2l153.8 153.8c-42.2 34.1-94.5 68.9-159.1 103.7-354.9-191-338.3-384.5-324.6-439.5 20-80.4 89.4-138.8 165.1-138.8 56.5 0 107.8 32.3 144.4 91.1 3.3 5.2 9 8.4 15.1 8.4s11.9-3.2 15.1-8.4c36.6-58.7 87.8-91.1 144.4-91.1 75.7 0 145.1 58.4 165.1 138.8 10.6 42.8 23 169-138.2 312.8l-155.9-156z" fill="#FFAEBF" p-id="4588"></path><path d="M202 112.6l-89.9 89.9-10.6-100.6z" fill="#FFD976" p-id="4589"></path></svg>